<svg xmlns="http://www.w3.org/2000/svg" viewBox="0 0 64 64" width="100%" height="100%">
  <!-- Neural Network Connections -->
  <path d="M16 20 L32 16 M16 20 L32 28 M16 20 L32 40 M16 32 L32 16 M16 32 L32 28 M16 32 L32 40 M16 44 L32 16 M16 44 L32 28 M16 44 L32 40 M32 16 L48 24 M32 16 L48 40 M32 28 L48 24 M32 28 L48 40 M32 40 L48 24 M32 40 L48 40" fill="none" stroke="#6366f1" stroke-width="1.5" stroke-dasharray="2 2" opacity="0.7"/>
  <!-- Input Layer -->
  <circle cx="16" cy="20" r="3" fill="#3b82f6"/>
  <circle cx="16" cy="32" r="3" fill="#3b82f6"/>
  <circle cx="16" cy="44" r="3" fill="#3b82f6"/>
  <!-- Hidden Layer -->
  <circle cx="32" cy="16" r="3" fill="#10b981"/>
  <circle cx="32" cy="28" r="3" fill="#10b981"/>
  <circle cx="32" cy="40" r="3" fill="#10b981"/>
  <!-- Output Layer -->
  <circle cx="48" cy="24" r="3" fill="#f59e0b"/>
  <circle cx="48" cy="40" r="3" fill="#f59e0b"/>
</svg>
