<svg xmlns="http://www.w3.org/2000/svg" viewBox="0 0 64 64" width="100%" height="100%">
  <!-- Medical Cross Background -->
  <path d="M24 16 L40 16 L40 24 L48 24 L48 40 L40 40 L40 48 L24 48 L24 40 L16 40 L16 24 L24 24 Z" fill="#1e293b" stroke="#f43f5e" stroke-width="2" opacity="0.8"/>
  
  <!-- Magnifying glass / Neural Analysis Lens -->
  <circle cx="32" cy="32" r="12" fill="none" stroke="#3b82f6" stroke-width="3"/>
  <line x1="40" y1="40" x2="52" y2="52" stroke="#3b82f6" stroke-width="4" stroke-linecap="round"/>
  
  <!-- Cancer Cell Structure under Analysis -->
  <path d="M28 28 C 30 26, 34 27, 35 29 C 38 30, 37 34, 34 35 C 31 38, 27 36, 26 33 C 24 30, 25 28, 28 28 Z" fill="#f43f5e" opacity="0.6"/>
  <circle cx="31" cy="31" r="1.5" fill="#ffffff"/>
  
  <!-- CNN Processing Grid inside Lens -->
  <path d="M26 24 L26 40 M30 24 L30 40 M34 24 L34 40 M38 24 L38 40" stroke="#10b981" stroke-width="0.5" opacity="0.5"/>
  <path d="M24 26 L40 26 M24 30 L40 30 M24 34 L40 34 M24 38 L40 38" stroke="#10b981" stroke-width="0.5" opacity="0.5"/>
  
  <!-- Classification Tag -->
  <rect x="14" y="44" width="20" height="8" rx="2" fill="#1e293b" stroke="#10b981" stroke-width="1.5"/>
  <text x="24" y="50" fill="#10b981" font-family="monospace" font-size="5" text-anchor="middle">Malignant: 98%</text>
</svg>
