<svg xmlns="http://www.w3.org/2000/svg" viewBox="0 0 64 64" width="100%" height="100%">
  <!-- Road Network -->
  <path d="M12 64 L24 20 L40 20 L52 64" fill="#334155"/>
  <path d="M32 20 L32 64" fill="none" stroke="#fbbf24" stroke-width="2" stroke-dasharray="4 6"/>
  
  <!-- Car -->
  <rect x="26" y="44" width="12" height="8" rx="2" fill="#f43f5e"/>
  <rect x="28" y="42" width="8" height="2" fill="#e2e8f0"/>
  <!-- License Plate -->
  <rect x="29" y="48" width="6" height="2" fill="#ffffff"/>

  <!-- YOLO Bounding Boxes -->
  <!-- Car Box -->
  <rect x="24" y="40" width="16" height="14" fill="none" stroke="#10b981" stroke-width="1.5"/>
  <rect x="24" y="38" width="8" height="2" fill="#10b981"/>
  
  <!-- License Plate Box -->
  <rect x="28" y="47" width="8" height="4" fill="none" stroke="#3b82f6" stroke-width="1"/>

  <!-- Monitoring Camera -->
  <rect x="44" y="12" width="8" height="4" rx="1" fill="#94a3b8"/>
  <circle cx="44" cy="14" r="1.5" fill="#facc15"/>
  <path d="M52 14 L56 16 L56 10 Z" fill="#94a3b8"/>
  <line x1="48" y1="16" x2="48" y2="24" stroke="#475569" stroke-width="2"/>
  
  <!-- Laser/Scan field from Camera -->
  <path d="M44 14 L24 40 L40 40 Z" fill="#10b981" opacity="0.15"/>
</svg>
