<svg xmlns="http://www.w3.org/2000/svg" viewBox="0 0 64 64" width="100%" height="100%">
  <defs>
    <linearGradient id="barGrad" x1="0%" y1="100%" x2="0%" y2="0%">
      <stop offset="0%" stop-color="#3b82f6" />
      <stop offset="100%" stop-color="#818cf8" />
    </linearGradient>
  </defs>

  <!-- Database / Stack representation -->
  <ellipse cx="20" cy="40" rx="10" ry="4" fill="none" stroke="#94a3b8" stroke-width="2"/>
  <ellipse cx="20" cy="46" rx="10" ry="4" fill="none" stroke="#94a3b8" stroke-width="2"/>
  <path d="M10 40 L10 46 A 10 4 0 0 0 30 46 L30 40" fill="none" stroke="#94a3b8" stroke-width="2"/>

  <!-- Data pipeline arrow / transformation -->
  <path d="M30 43 C30 43, 40 43, 40 33 L37 36 M40 33 L43 36" fill="none" stroke="#10b981" stroke-width="2" stroke-linecap="round" stroke-linejoin="round"/>
  
  <!-- Data Chart / Results -->
  <rect x="34" y="16" width="22" height="20" rx="2" fill="#1e293b" stroke="#818cf8" stroke-width="2"/>
  <!-- Bars -->
  <rect x="38" y="26" width="3" height="8" fill="url(#barGrad)"/>
  <rect x="43" y="22" width="3" height="12" fill="url(#barGrad)"/>
  <rect x="48" y="28" width="3" height="6" fill="url(#barGrad)"/>

  <!-- moving nodes -->
  <circle cx="28" cy="38" r="1.5" fill="#facc15"/>
  <circle cx="32" cy="36" r="1.5" fill="#facc15"/>
  <circle cx="36" cy="34" r="1.5" fill="#facc15"/>
</svg>
