<svg xmlns="http://www.w3.org/2000/svg" viewBox="0 0 48 48">
  <!-- Flask body -->
  <path d="M18 6 L18 18 L8 38 C6 42 9 44 12 44 L36 44 C39 44 42 42 40 38 L30 18 L30 6" fill="#e0f2fe" stroke="#0ea5e9" stroke-width="1.8" stroke-linejoin="round"/>
  <!-- Flask neck -->
  <rect x="16" y="4" width="16" height="4" rx="1" fill="none" stroke="#0ea5e9" stroke-width="1.8"/>
  <!-- Liquid -->
  <path d="M12 34 L16 26 L32 26 L36 34 C38 38 36 42 34 42 L14 42 C12 42 10 38 12 34 Z" fill="#06b6d4" opacity="0.3"/>
  <!-- Bubbles -->
  <circle cx="20" cy="36" r="2" fill="#06b6d4" opacity="0.5"/>
  <circle cx="28" cy="33" r="1.5" fill="#06b6d4" opacity="0.4"/>
  <circle cx="24" cy="38" r="2.5" fill="#06b6d4" opacity="0.3"/>
  <!-- Sparkle -->
  <circle cx="34" cy="10" r="1.5" fill="#fbbf24"/>
  <line x1="34" y1="7" x2="34" y2="13" stroke="#fbbf24" stroke-width="1" stroke-linecap="round"/>
  <line x1="31" y1="10" x2="37" y2="10" stroke="#fbbf24" stroke-width="1" stroke-linecap="round"/>
</svg>
