<svg xmlns="http://www.w3.org/2000/svg" viewBox="0 0 24 24" fill="none" stroke="currentColor" stroke-width="1.8" stroke-linecap="round" stroke-linejoin="round"><path d="M20.3 4.7c-.4-.4-3.8-2.5-8.3-2.5S4.1 4.3 3.7 4.7c-.4.4-1.5 2-1.5 4.6 0 2.6 1.3 4.4 1.6 4.8.2.2 2.7 4.2 6.6 5.8.5.2.8.3 1.1.3h1c.3 0 .7-.1 1.1-.3 3.9-1.6 6.4-5.6 6.6-5.8.3-.4 1.6-2.2 1.6-4.8 0-2.6-1.1-4.2-1.5-4.6z"/><path d="M10.5 10a1.5 1.5 0 1 1-3 0 1.5 1.5 0 0 1 3 0z"/><path d="M16.5 10a1.5 1.5 0 1 1-3 0 1.5 1.5 0 0 1 3 0z"/></svg>
