<svg xmlns="http://www.w3.org/2000/svg" viewBox="0 0 64 64" width="100%" height="100%">
  <defs>
    <linearGradient id="aiBrainGrad" x1="0%" y1="0%" x2="100%" y2="100%">
      <stop offset="0%" stop-color="#3b82f6" />
      <stop offset="100%" stop-color="#ec4899" />
    </linearGradient>
    <linearGradient id="aiCircuitGrad" x1="0%" y1="0%" x2="100%" y2="100%">
      <stop offset="0%" stop-color="#8b5cf6" />
      <stop offset="100%" stop-color="#10b981" />
    </linearGradient>
  </defs>

  <!-- Outline of a Brain -->
  <path d="M32 12 C 18 12, 12 24, 14 34 C 15 42, 22 48, 30 50 C 31 50, 31 52, 32 52 C 33 52, 33 50, 34 50 C 42 48, 49 42, 50 34 C 52 24, 46 12, 32 12 Z" fill="#1e293b" stroke="url(#aiBrainGrad)" stroke-width="3" stroke-linecap="round" stroke-linejoin="round"/>
  
  <!-- Left Hemisphere internal Neural Network -->
  <circle cx="22" cy="24" r="2.5" fill="#60a5fa" />
  <circle cx="28" cy="20" r="2.5" fill="#60a5fa" />
  <circle cx="20" cy="34" r="2.5" fill="#60a5fa" />
  <circle cx="26" cy="40" r="2.5" fill="#60a5fa" />
  <circle cx="28" cy="30" r="2.5" fill="#60a5fa" />
  
  <!-- Network connections Left Hemisphere -->
  <path d="M22 24 L28 20 M22 24 L20 34 M22 24 L28 30 M28 20 L28 30 M20 34 L28 30 M20 34 L26 40 L28 30" fill="none" stroke="#93c5fd" stroke-width="1.5" stroke-dasharray="1 1"/>

  <!-- Right Hemisphere internal Circuit Board ML Tree -->
  <rect x="36" y="24" width="4" height="4" fill="#10b981" />
  <rect x="42" y="20" width="4" height="4" fill="#10b981" />
  <rect x="44" y="34" width="4" height="4" fill="#10b981" />
  <rect x="38" y="40" width="4" height="4" fill="#10b981" />
  <rect x="36" y="30" width="4" height="4" fill="#10b981" />

  <!-- Network connections Right Hemisphere -->
  <path d="M38 26 L44 22 M38 26 L46 36 M38 26 L38 32 M38 32 L40 42 L46 36" fill="none" stroke="url(#aiCircuitGrad)" stroke-width="2" stroke-linejoin="round"/>
  
  <!-- Core Connector -->
  <path d="M32 16 L32 46" fill="none" stroke="#475569" stroke-width="2" stroke-linecap="round" stroke-dasharray="4 2"/>
</svg>
