<svg xmlns="http://www.w3.org/2000/svg" viewBox="0 0 64 64" width="100%" height="100%">
  <!-- Cloud Foundation -->
  <path d="M18 40 C 12 40, 10 32, 16 28 C 18 20, 28 16, 34 22 C 40 16, 50 18, 52 26 C 58 28, 56 40, 48 40 Z" fill="#1e293b" stroke="#3b82f6" stroke-width="3" stroke-linejoin="round"/>
  
  <!-- Network / Server Nodes base -->
  <circle cx="20" cy="46" r="3" fill="#60a5fa" />
  <circle cx="32" cy="46" r="3" fill="#10b981" />
  <circle cx="44" cy="46" r="3" fill="#f59e0b" />
  
  <path d="M20 40 L20 46" fill="none" stroke="#64748b" stroke-width="2" />
  <path d="M32 40 L32 46" fill="none" stroke="#64748b" stroke-width="2" />
  <path d="M44 40 L44 46" fill="none" stroke="#64748b" stroke-width="2" />

  <!-- DevOps Infinity Loop -->
  <path d="M24 30 C 18 24, 18 36, 24 30 L 40 30 C 46 24, 46 36, 40 30 Z" fill="none" stroke="#8b5cf6" stroke-width="3" stroke-linecap="round" stroke-linejoin="round"/>
  
  <!-- Syncing arrows on DevOps loop -->
  <path d="M25 25 L21 27 L25 29" fill="none" stroke="#a78bfa" stroke-width="2" stroke-linecap="round" stroke-linejoin="round"/>
  <path d="M39 35 L43 33 L39 31" fill="none" stroke="#a78bfa" stroke-width="2" stroke-linecap="round" stroke-linejoin="round"/>
</svg>
