<svg xmlns="http://www.w3.org/2000/svg" viewBox="0 0 64 64" width="100%" height="100%">
  <!-- Face Outline -->
  <path d="M32 54 C 20 54, 16 40, 16 26 C 16 14, 24 10, 32 10 C 40 10, 48 14, 48 26 C 48 40, 44 54, 32 54 Z" fill="none" stroke="#cbd5e1" stroke-width="2"/>
  
  <!-- Facial Landmarks / MediaPipe Mesh -->
  <path d="M22 26 C 24 24, 28 24, 30 26 C 28 28, 24 28, 22 26 Z" fill="none" stroke="#60a5fa" stroke-width="1"/> <!-- Left Eye -->
  <path d="M34 26 C 36 24, 40 24, 42 26 C 40 28, 36 28, 34 26 Z" fill="none" stroke="#60a5fa" stroke-width="1"/> <!-- Right Eye -->
  <path d="M32 30 L30 38 L34 38 Z" fill="none" stroke="#60a5fa" stroke-width="1"/> <!-- Nose -->
  
  <!-- Virtual Makeup Applications -->
  <!-- Lipstick -->
  <path d="M26 44 C 32 42, 32 42, 38 44 C 32 46, 32 46, 26 44 Z" fill="#f43f5e" opacity="0.8"/>
  <path d="M26 44 C 32 44, 32 44, 38 44" fill="none" stroke="#e11d48" stroke-width="1"/>
  
  <!-- Eyeshadow -->
  <path d="M22 24 C 24 22, 28 22, 30 24" fill="none" stroke="#d946ef" stroke-width="3" opacity="0.5" stroke-linecap="round"/>
  <path d="M34 24 C 36 22, 40 22, 42 24" fill="none" stroke="#d946ef" stroke-width="3" opacity="0.5" stroke-linecap="round"/>
  
  <!-- Magic Sparkles -->
  <path d="M12 16 L14 20 L18 22 L14 24 L12 28 L10 24 L6 22 L10 20 Z" fill="#facc15"/>
  <path d="M52 38 L53 41 L56 42 L53 43 L52 46 L51 43 L48 42 L51 41 Z" fill="#34d399"/>
</svg>
