<svg xmlns="http://www.w3.org/2000/svg" viewBox="0 0 64 64" width="100%" height="100%">
  <!-- Hand outline / skeleton -->
  <path d="M32 48 L22 30 L20 18 L24 16 L28 26 L30 12 L34 10 L36 26 L38 14 L42 12 L44 28 L48 20 L52 22 L44 38 L38 52 Z" fill="none" stroke="#475569" stroke-width="2" stroke-linejoin="round"/>
  
  <!-- Connections (MediaPipe style) -->
  <polyline points="32,48 22,30 20,18" fill="none" stroke="#3b82f6" stroke-width="2"/>
  <polyline points="32,48 28,26 30,12" fill="none" stroke="#10b981" stroke-width="2"/>
  <polyline points="32,48 36,26 38,14" fill="none" stroke="#f59e0b" stroke-width="2"/>
  <polyline points="32,48 44,28 48,20" fill="none" stroke="#ef4444" stroke-width="2"/>
  
  <!-- Landmarks (Nodes) -->
  <circle cx="32" cy="48" r="2.5" fill="#ffffff" stroke="#8b5cf6" stroke-width="1.5"/>
  
  <circle cx="22" cy="30" r="2" fill="#3b82f6"/>
  <circle cx="20" cy="18" r="2" fill="#3b82f6"/>
  
  <circle cx="28" cy="26" r="2" fill="#10b981"/>
  <circle cx="30" cy="12" r="2" fill="#10b981"/>
  
  <circle cx="36" cy="26" r="2" fill="#f59e0b"/>
  <circle cx="38" cy="14" r="2" fill="#f59e0b"/>
  
  <circle cx="44" cy="28" r="2" fill="#ef4444"/>
  <circle cx="48" cy="20" r="2" fill="#ef4444"/>
</svg>
