<svg xmlns="http://www.w3.org/2000/svg" viewBox="0 0 64 64" width="100%" height="100%">
  <!-- First Chat Bubble -->
  <path d="M14 26 C14 18.268 20.268 12 28 12 C35.732 12 42 18.268 42 26 C42 33.732 35.732 40 28 40 L18 42 L20.5 34 C16.5 32 14 29.2 14 26 Z" fill="#1e293b" stroke="#818cf8" stroke-width="2"/>
  <!-- Second Chat Bubble overlay -->
  <path d="M26 38 C26 31.373 31.373 26 38 26 C44.627 26 50 31.373 50 38 C50 44.627 44.627 50 38 50 L30 52 L32.5 45 C30 43.5 28 41.2 26 38 Z" fill="#2d3748" stroke="#10b981" stroke-width="2" opacity="0.9"/>
  <!-- NLP Nodes/Text representation -->
  <circle cx="28" cy="26" r="1.5" fill="#e2e8f0"/>
  <circle cx="23" cy="26" r="1.5" fill="#e2e8f0"/>
  <circle cx="33" cy="26" r="1.5" fill="#e2e8f0"/>
  <circle cx="38" cy="38" r="1.5" fill="#e2e8f0"/>
  <circle cx="34" cy="38" r="1.5" fill="#e2e8f0"/>
  <circle cx="42" cy="38" r="1.5" fill="#e2e8f0"/>
  <!-- Connecting line -->
  <path d="M12 50 Q 20 56 30 50" fill="none" stroke="#facc15" stroke-width="1.5" stroke-dasharray="2 2"/>
</svg>
