<svg xmlns="http://www.w3.org/2000/svg" viewBox="0 0 48 48">
  <!-- Brain left hemisphere -->
  <path d="M24 8 C18 8 12 12 10 18 C8 24 10 30 12 34 C14 38 18 42 24 42" fill="#ec4899" opacity="0.15" stroke="#ec4899" stroke-width="1.8"/>
  <!-- Brain right hemisphere -->
  <path d="M24 8 C30 8 36 12 38 18 C40 24 38 30 36 34 C34 38 30 42 24 42" fill="#8b5cf6" opacity="0.15" stroke="#8b5cf6" stroke-width="1.8"/>
  <!-- Brain folds - left -->
  <path d="M16 16 C18 14 22 16 24 18" fill="none" stroke="#ec4899" stroke-width="1.5" stroke-linecap="round" opacity="0.6"/>
  <path d="M12 24 C14 22 20 24 24 24" fill="none" stroke="#ec4899" stroke-width="1.5" stroke-linecap="round" opacity="0.6"/>
  <path d="M14 32 C16 30 20 32 24 32" fill="none" stroke="#ec4899" stroke-width="1.5" stroke-linecap="round" opacity="0.6"/>
  <!-- Brain folds - right -->
  <path d="M32 16 C30 14 26 16 24 18" fill="none" stroke="#8b5cf6" stroke-width="1.5" stroke-linecap="round" opacity="0.6"/>
  <path d="M36 24 C34 22 28 24 24 24" fill="none" stroke="#8b5cf6" stroke-width="1.5" stroke-linecap="round" opacity="0.6"/>
  <path d="M34 32 C32 30 28 32 24 32" fill="none" stroke="#8b5cf6" stroke-width="1.5" stroke-linecap="round" opacity="0.6"/>
  <!-- Neural connection dots -->
  <circle cx="14" cy="20" r="1.5" fill="#ec4899" opacity="0.8"/>
  <circle cx="34" cy="20" r="1.5" fill="#8b5cf6" opacity="0.8"/>
  <circle cx="18" cy="28" r="1.5" fill="#ec4899" opacity="0.8"/>
  <circle cx="30" cy="28" r="1.5" fill="#8b5cf6" opacity="0.8"/>
  <circle cx="24" cy="18" r="1.5" fill="#a855f7" opacity="0.8"/>
  <!-- Center line -->
  <line x1="24" y1="8" x2="24" y2="42" stroke="#a855f7" stroke-width="1" stroke-dasharray="2 3" opacity="0.4"/>
</svg>
